<svg id="Layer_1" data-name="Layer 1" xmlns="http://www.w3.org/2000/svg" viewBox="0 0 46 46.55"><defs><style>.cls-1{fill:#0af;opacity:0.75;}</style></defs><title>o</title><path class="cls-1" d="M46,15.1C41.33,5.73,25.26-3.59,16.35,5.94,5.38,9,.5,22.4,3.25,32.9,7,47,22,51.62,34.51,46.44A22.61,22.61,0,0,0,46,15.1ZM31.12,34.81C24.86,38.57,17,37,14.33,29.84c-2.22-6.05-.08-10.35,3.26-14.41a5.67,5.67,0,0,0,1.53.19c6.51-.12,11-3.08,15.3,3.7C37.86,24.8,36.69,31.46,31.12,34.81Z" transform="translate(-2.5 -1.95)"/></svg>