<svg id="Layer_1" data-name="Layer 1" xmlns="http://www.w3.org/2000/svg" viewBox="0 0 40.46 48.68"><defs><style>.cls-1{fill:#ff2789;opacity:0.74;}</style></defs><title>x</title><path class="cls-1" d="M38.89,12a3.4,3.4,0,0,0,1.3-.69c1.46-1.39,2.59-2.23,3.18-4.23,1-3.44-2.28-6.23-5.52-5.52-3.7.8-5.17,4.06-7.25,7-1.84,2.56-3.59,5.2-5.37,7.81A79.35,79.35,0,0,0,9.71,7.08C6,5.54,4,11.32,7.1,13.28c4.7,3,9.19,6.27,13.62,9.65-4.49,6.75-9.79,14.59-10.9,22.59-.49,3.54,4.71,6.71,6.41,2.71A117,117,0,0,1,26.45,29.6c.29-.45.63-.88.93-1.33,3.55,3.28,11.7,11.84,16.18,12.23,1.69.15,2.87-4.42,2.36-8.5-.68-5-9.25-7.79-13.64-10.67.74-1,1.44-2.09,2.19-3.11S37.46,14,38.89,12Z" transform="translate(-5.57 -1.41)"/></svg>